# xmcd
#
# Track frame offsets: 
#        150
#        14787
#        28177
#        38042
#        49452
#        60035
#        73625
#        94017
#        115915
#        131342
#        144815
#        152455
#        173677
#        189472
#        207282
#        227302
#        254837
#        268157
#        280295
#        302620
#
# Disc length: 4249 seconds
#
# Revision: 5
# Processed by: cddbd v1.5.2PL0 Copyright (c) Steve Scherf et al.
# Submitted via: ExactAudioCopyFreeDBPlugin 1.0
#
DISCID=14109714
DTITLE=Various Artist - Blues Music
DYEAR=1990
DGENRE=Blues
TTITLE0=Muddy Waters - Baby Please Don't Go
TTITLE1=Muddy Waters - Rollin' And Tumblin'
TTITLE2=John Lee Hooker - Dimples
TTITLE3=John Lee Hooker - Boom Boom
TTITLE4=Lightning Slim - My Babe
TTITLE5=Lightning Slim - Good Morning Heartache
TTITLE6=Etta James - I'd Rather Go Blind
TTITLE7=Etta James - Respect Yourself
TTITLE8=Otis Rush and Little Walter - Blue Mood
TTITLE9=Otis Rush and Little Walter - I Feel Good
TTITLE10=Mississippi John Hurt - I'm Satisfied
TTITLE11=Otis Rush and Little Walter - Monday Morning Blues
TTITLE12=Howlin' Wolf - Killin' Floor
TTITLE13=Howlin' Wolf - Goin' Down Slow
TTITLE14=Buddy Gay and Junior Wells - Everyday I Have The Blues
TTITLE15=Buddy Gay and Junior Wells - Out Of Sight
TTITLE16=Elmore James - Dust My Broom
TTITLE17=Elmore James - Mean Mistreatin' Mama
TTITLE18=B.B. King - Everyday I Have The Blues
TTITLE19=B.B. King - The Letter
EXTD=
EXTT0=
EXTT1=
EXTT2=
EXTT3=
EXTT4=
EXTT5=
EXTT6=
EXTT7=
EXTT8=
EXTT9=
EXTT10=
EXTT11=
EXTT12=
EXTT13=
EXTT14=
EXTT15=
EXTT16=
EXTT17=
EXTT18=
EXTT19=
PLAYORDER=
